<svg xmlns="http://www.w3.org/2000/svg" viewBox="0 0 820 260" width="820" height="260">
  <defs>
    <linearGradient id="bg" x1="0" y1="0" x2="0" y2="1">
      <stop offset="0%"   stop-color="#0d1117"/>
      <stop offset="100%" stop-color="#111827"/>
    </linearGradient>
  </defs>

  <!-- card -->
  <rect width="820" height="260" rx="14" fill="url(#bg)"/>
  <rect width="820" height="260" rx="14" fill="none" stroke="#30363d" stroke-width="1"/>

  <!-- title bar -->
  <rect width="820" height="44" rx="14" fill="#161b22"/>
  <rect y="30" width="820" height="14" fill="#161b22"/>
  <rect x="1" y="44" width="818" height="1" fill="#30363d"/>

  <!-- linux window buttons — right side, elegant line style -->
  <!-- minimize -->
  <rect x="746" y="15" width="18" height="16" rx="4" fill="#2a2f3a" stroke="#30363d" stroke-width="0.7"/>
  <line x1="751" y1="23" x2="760" y2="23" stroke="#8b949e" stroke-width="1.5" stroke-linecap="round"/>
  <!-- maximize -->
  <rect x="769" y="15" width="18" height="16" rx="4" fill="#2a2f3a" stroke="#30363d" stroke-width="0.7"/>
  <rect x="774" y="20" width="8" height="6" rx="1" fill="none" stroke="#8b949e" stroke-width="1.2"/>
  <!-- close -->
  <rect x="792" y="15" width="18" height="16" rx="4" fill="#c0392b" stroke="#a93226" stroke-width="0.7"/>
  <line x1="797" y1="19" x2="805" y2="27" stroke="white" stroke-width="1.4" stroke-linecap="round"/>
  <line x1="805" y1="19" x2="797" y2="27" stroke="white" stroke-width="1.4" stroke-linecap="round"/>

  <!-- prompt -->
  <text x="16" y="27" font-size="11" font-family="'JetBrains Mono',monospace" fill="#7ee787">james@ubuntu</text>
  <text x="114" y="27" font-size="11" font-family="'JetBrains Mono',monospace" fill="#8b949e">:</text>
  <text x="122" y="27" font-size="11" font-family="'JetBrains Mono',monospace" fill="#4fc3f7">~/G-alileo</text>
  <text x="198" y="27" font-size="11" font-family="'JetBrains Mono',monospace" fill="#8b949e">$ python stats.py</text>
  <text x="730" y="27" text-anchor="end" font-size="9" font-family="'JetBrains Mono',monospace" fill="#6e7681">2026-04-15 04:48 UTC</text>

  <!-- stat cards -->
  <rect x="50" y="58" width="136" height="62" rx="8" fill="#1c2330" stroke="#30363d" stroke-width="0.8"/><text x="118" y="80" text-anchor="middle" font-size="9" fill="#8b949e" font-family="'JetBrains Mono',monospace" letter-spacing="0.5">COMMITS</text><text x="118" y="104" text-anchor="middle" font-size="18" fill="#4fc3f7" font-family="'JetBrains Mono',monospace" font-weight="700">496</text>
  <rect x="196" y="58" width="136" height="62" rx="8" fill="#1c2330" stroke="#30363d" stroke-width="0.8"/><text x="264" y="80" text-anchor="middle" font-size="9" fill="#8b949e" font-family="'JetBrains Mono',monospace" letter-spacing="0.5">CONTRIBUTIONS</text><text x="264" y="104" text-anchor="middle" font-size="18" fill="#7ee787" font-family="'JetBrains Mono',monospace" font-weight="700">528</text>
  <rect x="342" y="58" width="136" height="62" rx="8" fill="#1c2330" stroke="#30363d" stroke-width="0.8"/><text x="410" y="80" text-anchor="middle" font-size="9" fill="#8b949e" font-family="'JetBrains Mono',monospace" letter-spacing="0.5">STREAK</text><text x="410" y="104" text-anchor="middle" font-size="18" fill="#ffa657" font-family="'JetBrains Mono',monospace" font-weight="700">44 days</text>
  <rect x="488" y="58" width="136" height="62" rx="8" fill="#1c2330" stroke="#30363d" stroke-width="0.8"/><text x="556" y="80" text-anchor="middle" font-size="9" fill="#8b949e" font-family="'JetBrains Mono',monospace" letter-spacing="0.5">STARS</text><text x="556" y="104" text-anchor="middle" font-size="18" fill="#e3b341" font-family="'JetBrains Mono',monospace" font-weight="700">11</text>
  <rect x="634" y="58" width="136" height="62" rx="8" fill="#1c2330" stroke="#30363d" stroke-width="0.8"/><text x="702" y="80" text-anchor="middle" font-size="9" fill="#8b949e" font-family="'JetBrains Mono',monospace" letter-spacing="0.5">FOLLOWERS</text><text x="702" y="104" text-anchor="middle" font-size="18" fill="#f78166" font-family="'JetBrains Mono',monospace" font-weight="700">17</text>

  <!-- divider -->
  <line x1="20" y1="136" x2="800" y2="136" stroke="#30363d" stroke-width="0.6"/>

  <!-- languages -->
  <text x="32" y="146" font-size="9" fill="#6e7681" font-family="'JetBrains Mono',monospace" letter-spacing="1">▸ LANGUAGES</text>
  <line x1="32" y1="152" x2="800" y2="152" stroke="#30363d" stroke-width="0.6"/>
  <text x="32" y="160" font-size="9.5" fill="#8b949e" font-family="'JetBrains Mono',monospace">Jupyter Notebook</text><rect x="32" y="163" width="335" height="8" rx="4" fill="#1c2330"/><rect x="32" y="163" width="116" height="8" rx="4" fill="#DA5B0B" opacity="0.85"/><text x="373" y="171" font-size="9" fill="#6e7681" font-family="'JetBrains Mono',monospace">34.7%</text>
  <text x="442" y="160" font-size="9.5" fill="#8b949e" font-family="'JetBrains Mono',monospace">Python</text><rect x="442" y="163" width="335" height="8" rx="4" fill="#1c2330"/><rect x="442" y="163" width="80" height="8" rx="4" fill="#3572A5" opacity="0.85"/><text x="783" y="171" font-size="9" fill="#6e7681" font-family="'JetBrains Mono',monospace">24.0%</text>
  <text x="32" y="184" font-size="9.5" fill="#8b949e" font-family="'JetBrains Mono',monospace">HTML</text><rect x="32" y="187" width="335" height="8" rx="4" fill="#1c2330"/><rect x="32" y="187" width="45" height="8" rx="4" fill="#e34c26" opacity="0.85"/><text x="373" y="195" font-size="9" fill="#6e7681" font-family="'JetBrains Mono',monospace">13.6%</text>
  <text x="442" y="184" font-size="9.5" fill="#8b949e" font-family="'JetBrains Mono',monospace">CSS</text><rect x="442" y="187" width="335" height="8" rx="4" fill="#1c2330"/><rect x="442" y="187" width="32" height="8" rx="4" fill="#563d7c" opacity="0.85"/><text x="783" y="195" font-size="9" fill="#6e7681" font-family="'JetBrains Mono',monospace">9.7%</text>
  <text x="32" y="208" font-size="9.5" fill="#8b949e" font-family="'JetBrains Mono',monospace">JavaScript</text><rect x="32" y="211" width="335" height="8" rx="4" fill="#1c2330"/><rect x="32" y="211" width="31" height="8" rx="4" fill="#f1e05a" opacity="0.85"/><text x="373" y="219" font-size="9" fill="#6e7681" font-family="'JetBrains Mono',monospace">9.5%</text>
  <text x="442" y="208" font-size="9.5" fill="#8b949e" font-family="'JetBrains Mono',monospace">TypeScript</text><rect x="442" y="211" width="335" height="8" rx="4" fill="#1c2330"/><rect x="442" y="211" width="12" height="8" rx="4" fill="#3178c6" opacity="0.85"/><text x="783" y="219" font-size="9" fill="#6e7681" font-family="'JetBrains Mono',monospace">3.7%</text>
</svg>